<svg width="150" height="45" viewBox="0 0 150 45" fill="none" xmlns="http://www.w3.org/2000/svg">
<path d="M38.0409 28.1531C37.6895 27.5087 37.2502 26.9201 36.7382 26.4027L33.97 23.6346L31.3081 26.2964L34.0435 29.0317C34.7728 29.7603 35.2236 30.7674 35.2236 31.8803C35.2236 32.9931 34.805 33.9268 34.1215 34.6493L34.1193 34.6516C34.094 34.6776 34.0687 34.7037 34.0435 34.7296C32.2778 36.5389 30.1127 37.9579 27.6912 38.8442C25.8627 39.513 23.8874 39.8781 21.8278 39.8781C20.0821 39.8781 18.3984 39.6164 16.8126 39.1289C15.513 38.7309 14.2809 38.1806 13.1344 37.501C8.12218 34.5276 4.76159 29.0623 4.76159 22.8118C4.76159 16.5613 8.12218 11.0952 13.1344 8.12189C14.2847 7.43998 15.5222 6.88893 16.8264 6.49014C18.4083 6.00491 20.0882 5.74468 21.8286 5.74468C23.8828 5.74468 25.8521 6.10745 27.6759 6.77258C30.1027 7.65807 32.2725 9.07774 34.0412 10.8909C34.0649 10.9146 34.0879 10.9383 34.1109 10.962C34.8004 11.6853 35.2236 12.6641 35.2236 13.7425C35.2236 14.8209 34.7728 15.8617 34.0435 16.5911L33.4243 17.211L30.4854 20.1491L24.0779 13.7418C23.8675 13.5335 23.6456 13.3376 23.4129 13.154C22.0881 12.1131 20.4166 11.4917 18.6005 11.4917C17.9561 11.4917 17.33 11.5697 16.7307 11.7181C16.3044 11.8223 15.8919 11.9623 15.497 12.1345C15.4664 12.1475 15.4358 12.1613 15.406 12.175C12.6943 13.3943 10.8062 16.1197 10.8062 19.2858C10.8062 19.4795 10.8131 19.6716 10.8276 19.8622C10.8276 19.8698 10.8284 19.8774 10.8292 19.8859C10.8322 19.9326 10.8369 19.9793 10.8414 20.026C10.9394 20.8601 11.4499 21.5689 12.1632 21.9416C12.5076 22.1214 12.8994 22.2233 13.315 22.2233H13.3188C14.0528 22.2225 14.7133 21.9033 15.1679 21.3967C15.5644 20.9566 15.8054 20.3734 15.8054 19.7336C15.8054 19.5108 15.7763 19.2958 15.722 19.0907C15.5819 18.5664 15.275 18.1095 14.8617 17.782C15.458 16.3018 16.9068 15.2572 18.6005 15.2572C19.7132 15.2572 20.7204 15.7079 21.4498 16.4373L27.8236 22.811L26.1682 24.4665L21.4153 29.2192C20.689 29.9287 19.6957 30.3657 18.6005 30.3657C18.0188 30.3657 17.4654 30.2424 16.9657 30.0205C16.9626 30.019 16.9588 30.0174 16.955 30.016C16.006 29.5904 15.2513 28.809 14.8617 27.8416C15.275 27.5132 15.5819 27.0571 15.722 26.5321C15.7763 26.3277 15.8054 26.1119 15.8054 25.89C15.8054 25.2501 15.5644 24.667 15.1679 24.2262C14.7133 23.7202 14.0543 23.4011 13.3204 23.3996H13.315C12.8994 23.3996 12.5076 23.5013 12.1632 23.6812C11.4475 24.0554 10.9364 24.7672 10.8406 25.6045C10.8399 25.6152 10.8384 25.6252 10.8376 25.6351C10.8345 25.6688 10.8315 25.7017 10.8292 25.7353C10.8292 25.7445 10.8292 25.753 10.8276 25.7614C10.8131 25.9513 10.8062 26.1433 10.8062 26.3361C10.8062 29.5024 12.6943 32.2286 15.406 33.4477L15.497 33.4883C15.8919 33.6605 16.3044 33.8005 16.7307 33.9046C17.33 34.0531 17.9561 34.1312 18.6005 34.1312C20.4212 34.1312 22.0958 33.5074 23.4221 32.4612C23.5484 32.3617 23.6716 32.2576 23.7918 32.1497L23.7948 32.1467L29.5846 26.3569L30.477 25.4645L33.1388 22.8026L33.9271 22.015L34.6182 21.324L36.6969 19.2446C37.2243 18.7172 37.6765 18.1142 38.0362 17.4537C38.6378 16.3477 38.9799 15.0803 38.9799 13.7334C38.9799 13.0935 38.9026 12.4721 38.7572 11.8774C38.4289 10.5326 37.7523 9.32495 36.8277 8.35607C36.7994 8.32616 36.7712 8.29715 36.7413 8.26804C36.7374 8.26419 36.7344 8.26113 36.7313 8.25728C36.7076 8.23439 36.6847 8.2106 36.6617 8.18771C36.6563 8.18159 36.651 8.17695 36.6457 8.17232C32.8694 4.34949 27.6261 1.97998 21.8286 1.97998C19.0152 1.97998 16.3327 2.53715 13.8844 3.54817C12.6607 4.05334 11.4958 4.67169 10.4021 5.38962C4.73632 9.11376 0.996094 15.5258 0.996094 22.8118C0.996094 30.0978 4.73632 36.5099 10.4021 40.2332C11.492 40.9488 12.653 41.5657 13.8722 42.0693C16.3235 43.0841 19.0107 43.6436 21.8286 43.6436C27.6567 43.6436 32.9261 41.2496 36.7061 37.3915L36.7237 37.374C36.736 37.3616 36.7482 37.3487 36.7604 37.3365C36.7841 37.3127 36.8079 37.2882 36.8308 37.2637C36.84 37.2552 36.8485 37.2461 36.8569 37.2361C37.7676 36.2741 38.4358 35.0795 38.7625 33.75C38.9111 33.1508 38.9891 32.5247 38.9891 31.8803C38.9891 30.5302 38.6447 29.2605 38.0409 28.1531Z" fill="white"/>
<path d="M59.2792 20.0615C58.9538 19.5954 58.5353 19.1758 58.0703 18.8029C57.6053 18.43 57.1403 18.1503 56.6288 17.9172C56.1173 17.6842 55.6058 17.4977 55.0479 17.3579C54.4899 17.2181 53.9318 17.1714 53.3739 17.1714C52.7229 17.1714 52.0254 17.2646 51.328 17.4511C50.7234 17.6376 50.119 17.8706 49.5609 18.1969C48.4915 18.8495 47.5615 19.7818 46.9569 20.8539C46.6315 21.4132 46.399 22.0192 46.213 22.6253C46.027 23.2779 45.9805 23.9305 45.9805 24.5831C45.9805 25.2356 46.0735 25.8882 46.2595 26.5408C46.4455 27.1468 46.678 27.7528 47.05 28.3121C47.701 29.3842 48.6309 30.3165 49.7469 30.9691C50.3049 31.2955 50.9094 31.5751 51.5139 31.715C52.1184 31.9014 52.7694 31.9946 53.4204 31.9946H53.4669C53.8854 31.9946 54.3504 31.9481 54.7689 31.8548C55.1873 31.7616 55.6058 31.6683 55.9779 31.5285C56.3498 31.3886 56.7218 31.2022 57.0938 30.9691C57.4193 30.7827 57.7913 30.5496 58.0703 30.3165C58.2098 30.1767 58.3493 30.0368 58.4888 29.897C58.6283 29.7105 58.6748 29.5241 58.7213 29.291C58.7213 29.1512 58.6748 29.058 58.6283 28.9181C58.5817 28.8249 58.5353 28.7316 58.4888 28.6851L58.3028 28.452C58.2563 28.4054 58.2098 28.3121 58.1633 28.2189C58.0703 28.0791 57.9773 27.9392 57.8378 27.7994C57.7448 27.6595 57.6518 27.5663 57.5123 27.473C57.3728 27.3799 57.2333 27.3332 57.0938 27.3332H57.0473H57.0008C56.8148 27.3332 56.6288 27.3799 56.4894 27.5197C56.3963 27.5663 56.3033 27.6595 56.2568 27.7061C56.0708 27.846 55.8848 28.0325 55.6523 28.1723C55.4664 28.3121 55.2339 28.452 55.0479 28.5452C54.8154 28.6384 54.5829 28.7317 54.3039 28.7782C54.0249 28.8249 53.7458 28.8715 53.4204 28.8715H53.3739C52.9089 28.8715 52.4439 28.7782 52.0254 28.5918C51.5604 28.4054 51.1884 28.1723 50.8164 27.846C50.4444 27.5197 50.119 27.1468 49.8399 26.7273C49.7005 26.4942 49.5609 26.2611 49.468 26.028H59.6978C60.3023 26.028 60.7207 25.6085 60.7207 25.0026C60.7672 24.0703 60.6278 23.0914 60.3953 22.2057C60.2093 21.4599 59.7907 20.7141 59.2792 20.0615ZM57.4658 22.9981H49.468C49.6074 22.6718 49.7469 22.3922 49.9794 22.0658C50.3049 21.5997 50.7234 21.1802 51.1884 20.8539C51.5139 20.6208 51.9324 20.481 52.3044 20.3878C52.6764 20.2945 53.0949 20.248 53.5134 20.248C54.0249 20.248 54.4899 20.3411 54.9548 20.481C55.4198 20.6208 55.8383 20.8539 56.2104 21.1802C56.5823 21.4599 56.9079 21.8328 57.1403 22.2523C57.2798 22.4854 57.3728 22.7184 57.4658 22.9981Z" fill="white"/>
<path d="M72.9939 30.2236L67.6 23.7909L72.3429 18.8499C72.4824 18.6634 72.5754 18.3837 72.5754 18.1973C72.5754 18.0574 72.5754 17.9642 72.5289 17.8709C72.4824 17.7778 72.3894 17.6845 72.2964 17.5447C72.1104 17.4048 71.9244 17.3583 71.7384 17.3583H70.204C69.9715 17.3583 69.7854 17.4048 69.5994 17.4981C69.46 17.5913 69.3669 17.6845 69.2275 17.7778L64.7635 22.5324V14.4215C64.7635 14.2817 64.7635 14.1419 64.6705 14.002C64.6241 13.8622 64.531 13.7223 64.438 13.6758C64.252 13.4893 64.0195 13.396 63.7405 13.396H62.6711C62.5316 13.396 62.3921 13.396 62.2526 13.4427C62.113 13.4893 61.9736 13.5825 61.8805 13.6758C61.6946 13.8622 61.6016 14.0953 61.6016 14.3749V30.6432C61.6016 30.7831 61.6016 30.9229 61.648 31.0161C61.6946 31.1559 61.7876 31.2958 61.8805 31.389C61.9736 31.4822 62.113 31.5755 62.2526 31.6221C62.3455 31.6687 62.4386 31.6687 62.578 31.6687C62.6245 31.6687 62.6245 31.6687 62.6711 31.6687H63.6476C64.252 31.6687 64.6705 31.2492 64.6705 30.6432V26.7742L65.461 25.9818L69.6925 31.1093C69.7854 31.2492 69.8784 31.4357 70.0644 31.5288C70.2504 31.6221 70.4365 31.7153 70.6224 31.7153H72.3894C72.5754 31.7153 72.7149 31.7153 72.8544 31.6221L72.9009 31.5755C72.9939 31.5288 73.2728 31.3424 73.2728 30.9229C73.2728 30.8296 73.2728 30.7364 73.2264 30.6432C73.2264 30.5033 73.1334 30.3635 72.9939 30.2236Z" fill="white"/>
<path d="M85.8785 17.3537H84.8556C84.716 17.3537 84.5766 17.3537 84.4835 17.4003C84.3441 17.4469 84.2045 17.5401 84.1116 17.6334C84.0186 17.7265 83.9256 17.8665 83.8791 18.0063C83.8326 18.1461 83.8326 18.286 83.8326 18.3791V18.4258C83.4141 18.1461 82.9956 17.8665 82.5306 17.6799C81.6471 17.307 80.7171 17.1206 79.7871 17.1206C79.7407 17.1206 79.7407 17.1206 79.6942 17.1206C79.0432 17.1206 78.3921 17.2139 77.7412 17.4003C77.1367 17.5867 76.5322 17.8198 75.9742 18.1461C75.4162 18.4724 74.9047 18.8453 74.4862 19.3115C74.0212 19.7776 73.6493 20.2438 73.3237 20.8031C72.9983 21.3624 72.7193 21.9685 72.5797 22.5744C72.2078 23.8796 72.2078 25.2315 72.5797 26.49C72.7658 27.096 72.9983 27.7019 73.3237 28.2614C73.9747 29.3335 74.9047 30.2657 75.9742 30.9183C76.5322 31.2446 77.1367 31.5243 77.7412 31.6641C78.3921 31.8506 79.0432 31.9439 79.6942 31.9439C79.7407 31.9439 79.7407 31.9439 79.7871 31.9439C80.7171 31.9439 81.6471 31.7573 82.5306 31.3844C82.9956 31.198 83.4141 30.9183 83.8326 30.6387V30.7318C83.8326 30.8717 83.8326 31.0115 83.9256 31.1514C83.972 31.2913 84.0651 31.3844 84.1581 31.4777C84.251 31.5709 84.3906 31.6641 84.5301 31.7108C84.6695 31.7573 84.8091 31.8039 84.902 31.7573H85.9716C86.2506 31.7573 86.4831 31.6641 86.669 31.4777C86.762 31.3844 86.855 31.2446 86.9015 31.1047C86.9481 30.9649 86.9945 30.8251 86.9481 30.7318V18.3791C86.9481 18.0063 86.8085 17.7732 86.669 17.6334C86.5295 17.4935 86.297 17.3537 85.8785 17.3537ZM83.8791 24.4856C83.8791 25.0449 83.7861 25.6043 83.5536 26.1637C83.3211 26.6765 83.0421 27.1426 82.6236 27.5621C82.2516 27.9816 81.7866 28.3079 81.2751 28.541C80.7636 28.774 80.2057 28.914 79.6477 28.914C79.0896 28.914 78.5317 28.774 78.0667 28.541C77.5552 28.3079 77.1367 27.9816 76.7182 27.5621C76.3462 27.1426 76.0208 26.6765 75.8347 26.1637C75.4162 25.0915 75.4162 23.9263 75.8347 22.8541C76.0672 22.3414 76.3462 21.8752 76.7182 21.4557C77.0902 21.0362 77.5552 20.7564 78.0667 20.5234C78.5782 20.2903 79.1361 20.1505 79.6477 20.1505C80.2057 20.1505 80.7636 20.2903 81.2751 20.5234C81.7866 20.7564 82.2516 21.0828 82.6236 21.4557C82.9956 21.8752 83.3211 22.3414 83.5536 22.8541C83.7861 23.3668 83.8791 23.9263 83.8791 24.4856Z" fill="white"/>
<path d="M105.585 28.8705C105.539 28.8239 105.492 28.7307 105.446 28.6841L104.981 28.0781C104.934 27.9848 104.841 27.8917 104.795 27.7984C104.702 27.6119 104.515 27.5187 104.283 27.4255C104.097 27.3789 103.911 27.3789 103.725 27.4255C103.586 27.4721 103.493 27.5187 103.353 27.6119L103.214 27.7518C103.028 27.8917 102.842 28.0781 102.609 28.2179C102.423 28.3578 102.19 28.4976 102.005 28.5909C101.772 28.6841 101.54 28.7773 101.261 28.8239C100.981 28.8705 100.703 28.9171 100.378 28.9171H100.331C99.819 28.9171 99.2614 28.7773 98.7966 28.5909C98.2845 28.3578 97.8197 28.0315 97.4476 27.6586C97.0292 27.2391 96.7499 26.7729 96.518 26.2601C96.2851 25.7474 96.1924 25.188 96.1924 24.582C96.1924 24.0227 96.3315 23.4167 96.5644 22.904C96.7973 22.3912 97.122 21.8784 97.494 21.5055C97.866 21.086 98.3318 20.7597 98.843 20.5267C99.3078 20.2936 99.8654 20.1537 100.378 20.1537C100.656 20.1537 100.889 20.2003 101.168 20.2469C101.679 20.3402 102.19 20.5733 102.609 20.8529C102.795 20.9928 102.981 21.1326 103.167 21.3191C103.4 21.5521 103.679 21.6919 103.958 21.6919C104.143 21.6919 104.423 21.5988 104.656 21.2724L105.446 20.2469C105.585 20.0605 105.585 19.8274 105.585 19.641C105.585 19.5011 105.492 19.3146 105.4 19.1748C105.306 19.0816 105.213 18.9884 105.12 18.8951L104.934 18.7553C104.656 18.5222 104.33 18.3358 104.004 18.1494C103.632 17.9629 103.307 17.7764 102.934 17.6366C102.562 17.4968 102.144 17.4035 101.726 17.3103C101.307 17.217 100.889 17.1704 100.47 17.217C99.819 17.217 99.1687 17.3103 98.5173 17.4968C97.9124 17.6832 97.3085 17.9163 96.7499 18.2425C95.6348 18.8951 94.7506 19.8274 94.0539 20.8995C93.7282 21.4589 93.4489 22.0649 93.2634 22.6709C92.8914 23.9761 92.8914 25.3279 93.2634 26.5865C93.4489 27.1924 93.6818 27.7984 94.0539 28.3578C94.7042 29.4299 95.6348 30.3621 96.7499 31.0147C97.3085 31.3411 97.9124 31.6208 98.5173 31.7606C99.1687 31.947 99.7726 32.0403 100.424 32.0403H100.47C100.889 32.0403 101.354 31.9937 101.772 31.9004C102.19 31.8072 102.609 31.714 102.981 31.5742C103.353 31.4343 103.725 31.2478 104.097 31.0147C104.423 30.8283 104.748 30.5952 105.074 30.3621C105.213 30.269 105.353 30.1291 105.446 29.9893C105.539 29.8494 105.631 29.7095 105.678 29.5697C105.724 29.3833 105.724 29.1968 105.678 29.0569L105.585 28.8705Z" fill="white"/>
<path d="M119.543 17.3537H118.52C118.381 17.3537 118.24 17.3537 118.148 17.4003C118.009 17.4469 117.869 17.5401 117.776 17.6334C117.683 17.7265 117.59 17.8665 117.544 18.0063C117.497 18.1461 117.497 18.286 117.497 18.3791V18.4258C117.078 18.1461 116.66 17.8665 116.195 17.6799C115.311 17.307 114.382 17.1206 113.405 17.1206C112.754 17.1206 112.103 17.2139 111.452 17.4003C110.848 17.5867 110.243 17.8198 109.685 18.1461C109.127 18.4724 108.616 18.8453 108.197 19.3115C107.733 19.7776 107.36 20.2438 107.035 20.8031C106.709 21.3624 106.476 21.9685 106.291 22.5744C105.919 23.8796 105.919 25.2315 106.291 26.49C106.802 28.3545 108.057 29.9394 109.685 30.9183C110.243 31.2446 110.848 31.5243 111.452 31.6641C112.103 31.8506 112.754 31.9439 113.405 31.9439C113.451 31.9439 113.451 31.9439 113.498 31.9439C114.428 31.9439 115.358 31.7573 116.241 31.3844C116.707 31.198 117.125 30.9183 117.544 30.6387V30.7318C117.544 30.8717 117.544 31.0115 117.636 31.1514C117.683 31.2913 117.776 31.3844 117.869 31.4777C117.962 31.5709 118.101 31.6641 118.24 31.7108C118.381 31.7573 118.52 31.8039 118.612 31.7573H119.682C119.961 31.7573 120.193 31.6641 120.38 31.4777C120.473 31.3844 120.565 31.2446 120.613 31.1047C120.659 30.9649 120.706 30.8251 120.706 30.7318V18.3791C120.706 18.0063 120.565 17.7732 120.426 17.6334C120.193 17.4935 119.961 17.3537 119.543 17.3537ZM117.59 24.4856C117.59 25.0449 117.497 25.6043 117.264 26.1637C117.032 26.6765 116.753 27.1892 116.335 27.5621C115.963 27.9816 115.497 28.3079 114.986 28.541C114.475 28.774 113.916 28.914 113.359 28.914C112.801 28.914 112.242 28.774 111.778 28.541C111.266 28.3079 110.848 27.9816 110.429 27.5621C110.057 27.1426 109.732 26.6765 109.545 26.1637C109.127 25.0915 109.127 23.9263 109.545 22.8541C109.778 22.3414 110.057 21.8752 110.429 21.4557C110.801 21.0362 111.266 20.7564 111.778 20.5234C112.289 20.2903 112.847 20.1505 113.359 20.1505C113.916 20.1505 114.475 20.2903 114.986 20.5234C115.497 20.7564 115.963 21.0828 116.335 21.4557C116.707 21.8752 117.032 22.3414 117.264 22.8541C117.45 23.3668 117.59 23.9263 117.59 24.4856Z" fill="white"/>
<path d="M131.676 19.3156C131.676 19.1758 131.63 19.0359 131.583 18.8961C131.537 18.7563 131.443 18.663 131.35 18.5698C131.258 18.4766 131.165 18.3833 131.025 18.3367C130.746 18.1503 130.467 17.9638 130.141 17.7774C129.862 17.6376 129.584 17.4977 129.258 17.4045C128.933 17.3112 128.607 17.2646 128.281 17.2181C127.909 17.1714 127.537 17.1714 127.212 17.1714C126.793 17.1714 126.421 17.2181 126.05 17.3579C125.724 17.4977 125.445 17.6376 125.166 17.824C125.119 17.8706 125.073 17.9172 125.027 17.9172C124.98 17.824 124.934 17.7307 124.84 17.6376C124.747 17.5443 124.608 17.4511 124.468 17.4045C124.329 17.3579 124.19 17.3112 124.097 17.3579H123.027C122.887 17.3579 122.748 17.3579 122.655 17.4511C122.515 17.4977 122.422 17.5909 122.33 17.6376C122.237 17.7307 122.144 17.8706 122.097 18.0105C122.05 18.1503 122.004 18.2902 122.004 18.3833V30.736C122.004 31.342 122.422 31.7616 123.027 31.7616H124.097C124.143 31.7616 124.143 31.7616 124.19 31.7616C124.283 31.7616 124.422 31.7616 124.515 31.715C124.655 31.6683 124.794 31.5751 124.887 31.4819C124.98 31.3886 125.073 31.2488 125.119 31.109C125.166 30.9691 125.166 30.8293 125.166 30.736V22.5786C125.166 22.2057 125.212 21.8794 125.352 21.5531C125.445 21.2734 125.631 21.0404 125.817 20.8073C126.003 20.6208 126.235 20.481 126.468 20.3411C126.7 20.248 126.98 20.2013 127.259 20.2013C127.631 20.2013 128.003 20.248 128.374 20.3878C128.793 20.5276 129.165 20.7141 129.49 20.9471L129.63 21.0404C129.769 21.1802 129.956 21.2268 130.188 21.2268C130.327 21.2268 130.467 21.1802 130.56 21.087C130.699 20.9937 130.793 20.9005 130.885 20.8073L131.537 19.7818C131.63 19.6419 131.676 19.5021 131.676 19.3156Z" fill="white"/>
<path d="M145.813 22.2481C145.581 21.4557 145.255 20.6633 144.744 20.0107C144.372 19.5445 144 19.125 143.535 18.7521C143.069 18.3791 142.605 18.0995 142.093 17.8665C141.582 17.6334 141.07 17.4469 140.512 17.307C139.954 17.1672 139.396 17.1206 138.839 17.1206H138.791C138.141 17.1206 137.443 17.2139 136.792 17.4003C136.188 17.5867 135.583 17.8198 135.026 18.1461C134.467 18.4724 133.956 18.8453 133.537 19.3115C132.654 20.2438 132.003 21.3624 131.677 22.5744C131.492 23.227 131.445 23.8796 131.445 24.5322C131.445 25.1848 131.538 25.884 131.724 26.49C131.91 27.096 132.142 27.7019 132.468 28.2614C132.793 28.8207 133.212 29.3335 133.63 29.753C134.095 30.2191 134.607 30.592 135.118 30.9183C135.676 31.2446 136.281 31.5243 136.886 31.6641C137.536 31.8506 138.141 31.9439 138.791 31.9439C138.791 31.9439 138.791 31.9439 138.839 31.9439C139.304 31.9439 139.722 31.8972 140.14 31.804C140.559 31.7108 140.977 31.6175 141.349 31.4777C141.721 31.3378 142.093 31.1514 142.465 30.9183C142.791 30.7318 143.116 30.4988 143.441 30.2657C143.581 30.1259 143.767 29.9861 143.86 29.8462C144 29.7064 144.046 29.5199 144.046 29.2402C144.046 29.1004 144 29.0071 143.954 28.8673C143.907 28.774 143.86 28.6809 143.813 28.6342L143.674 28.4478C143.628 28.4012 143.581 28.3079 143.488 28.2147L143.163 27.7952C143.116 27.7019 143.023 27.6088 142.93 27.5621C142.837 27.4689 142.697 27.4222 142.558 27.3757C142.419 27.329 142.279 27.329 142.186 27.3757C142.047 27.4222 141.953 27.4689 141.86 27.5155C141.768 27.5621 141.675 27.6553 141.629 27.7019C141.442 27.8418 141.256 28.0283 141.024 28.1681C140.838 28.3079 140.605 28.4478 140.42 28.541C140.187 28.6342 139.954 28.7274 139.676 28.774C139.396 28.8207 139.071 28.8673 138.791 28.8673H138.745C138.28 28.8673 137.815 28.774 137.397 28.5876C136.932 28.4012 136.56 28.1681 136.188 27.8418C135.816 27.5155 135.49 27.1426 135.257 26.7231C135.118 26.49 134.979 26.2569 134.885 26.0239H145.116C145.72 26.0239 146.138 25.6043 146.138 24.9984C146.185 24.1127 146.046 23.1804 145.813 22.2481ZM142.884 22.994H134.885C135.026 22.6676 135.165 22.388 135.398 22.0616C135.723 21.5955 136.142 21.176 136.606 20.8497C136.932 20.6166 137.304 20.4768 137.723 20.3836C138.095 20.2903 138.513 20.2438 138.931 20.2438C139.443 20.2438 139.907 20.3369 140.372 20.4768C140.838 20.6166 141.256 20.8497 141.629 21.176C142.001 21.4557 142.325 21.8286 142.558 22.2481C142.651 22.4812 142.791 22.7142 142.884 22.994Z" fill="white"/>
<path d="M91.0844 28.2682C90.7588 28.1283 90.3868 28.0817 90.0147 28.175C89.6431 28.2682 89.3175 28.4081 89.0385 28.6878C88.7595 28.9674 88.5735 29.2937 88.527 29.6666C88.4341 30.1794 88.527 30.6456 88.806 31.0651C89.085 31.4846 89.5035 31.7642 89.9683 31.8575C90.1085 31.9041 90.2012 31.9041 90.3404 31.9041C90.5733 31.9041 90.8052 31.8575 91.0381 31.7642C91.3637 31.6244 91.6894 31.3913 91.8749 31.0651C92.0614 30.7387 92.2006 30.4125 92.2006 30.0395C92.2006 29.6666 92.1078 29.2937 91.8749 29.014C91.7358 28.6411 91.4565 28.4081 91.0844 28.2682Z" fill="white"/>
</svg>
