<svg width="152" height="44" viewBox="0 0 152 44" fill="none" xmlns="http://www.w3.org/2000/svg">
<path d="M38.5387 27.5221C38.1827 26.8691 37.7375 26.2727 37.2187 25.7484L34.4136 22.9433L31.7162 25.6406L34.488 28.4124C35.2271 29.1507 35.6839 30.1713 35.6839 31.299C35.6839 32.4266 35.2597 33.3728 34.5671 34.1049L34.5648 34.1072C34.5392 34.1336 34.5136 34.16 34.488 34.1863C32.6988 36.0197 30.5048 37.4576 28.051 38.3557C26.1982 39.0335 24.1965 39.4034 22.1095 39.4034C20.3405 39.4034 18.6343 39.1382 17.0274 38.6442C15.7105 38.2409 14.4619 37.6833 13.3001 36.9946C8.2211 33.9816 4.8157 28.4434 4.8157 22.1096C4.8157 15.7757 8.2211 10.2368 13.3001 7.2238C14.4658 6.5328 15.7198 5.9744 17.0414 5.5703C18.6444 5.0786 20.3467 4.8149 22.1103 4.8149C24.1919 4.8149 26.1874 5.1825 28.0355 5.8565C30.4947 6.7538 32.6934 8.1924 34.4857 10.0297C34.5097 10.0537 34.533 10.0778 34.5563 10.1018C35.255 10.8347 35.6839 11.8266 35.6839 12.9194C35.6839 14.0121 35.2271 15.0668 34.488 15.8059L33.8606 16.4341L30.8825 19.4114L24.3896 12.9186C24.1764 12.7076 23.9515 12.5091 23.7157 12.323C22.3732 11.2682 20.6794 10.6385 18.8391 10.6385C18.1861 10.6385 17.5517 10.7176 16.9444 10.868C16.5124 10.9735 16.0944 11.1154 15.6942 11.2899C15.6632 11.3031 15.6322 11.3171 15.602 11.331C12.8542 12.5665 10.9409 15.3282 10.9409 18.5366C10.9409 18.7328 10.9479 18.9275 10.9626 19.1206C10.9626 19.1284 10.9634 19.1361 10.9642 19.1447C10.9673 19.192 10.972 19.2393 10.9766 19.2866C11.0759 20.1319 11.5932 20.8501 12.316 21.2278C12.665 21.41 13.062 21.5132 13.4832 21.5132H13.487C14.2308 21.5124 14.9001 21.189 15.3608 20.6756C15.7625 20.2296 16.0068 19.6387 16.0068 18.9903C16.0068 18.7646 15.9773 18.5467 15.9223 18.3389C15.7803 17.8076 15.4693 17.3446 15.0505 17.0127C15.6547 15.5128 17.1228 14.4542 18.8391 14.4542C19.9667 14.4542 20.9873 14.911 21.7264 15.6501L28.1852 22.1088L26.5077 23.7863L21.6915 28.6024C20.9555 29.3214 19.9489 29.7642 18.8391 29.7642C18.2497 29.7642 17.6889 29.6393 17.1825 29.4144C17.1794 29.4129 17.1755 29.4113 17.1717 29.4098C16.21 28.9786 15.4453 28.1867 15.0505 27.2064C15.4693 26.8737 15.7803 26.4115 15.9223 25.8795C15.9773 25.6724 16.0068 25.4537 16.0068 25.2288C16.0068 24.5804 15.7625 23.9895 15.3608 23.5428C14.9001 23.0301 14.2323 22.7067 13.4886 22.7052H13.4832C13.062 22.7052 12.665 22.8083 12.316 22.9906C11.5908 23.3698 11.0728 24.0911 10.9758 24.9395C10.9751 24.9504 10.9735 24.9605 10.9727 24.9705C10.9696 25.0047 10.9665 25.038 10.9642 25.0721C10.9642 25.0814 10.9642 25.09 10.9626 25.0985C10.9479 25.2909 10.9409 25.4855 10.9409 25.6809C10.9409 28.8894 12.8542 31.6519 15.602 32.8873L15.6942 32.9284C16.0944 33.1029 16.5124 33.2448 16.9444 33.3503C17.5517 33.5008 18.1861 33.5799 18.8391 33.5799C20.6841 33.5799 22.381 32.9478 23.725 31.8876C23.853 31.7868 23.9778 31.6813 24.0996 31.572L24.1027 31.5689L29.9697 25.7019L30.874 24.7976L33.5713 22.1003L34.3701 21.3022L35.0704 20.6019L37.1768 18.4948C37.7112 17.9604 38.1695 17.3493 38.534 16.68C39.1436 15.5593 39.4903 14.275 39.4903 12.9101C39.4903 12.2617 39.4119 11.632 39.2646 11.0294C38.9319 9.6667 38.2463 8.4429 37.3094 7.4611C37.2807 7.4308 37.2521 7.4014 37.2218 7.3719C37.2179 7.368 37.2148 7.3649 37.2117 7.361C37.1877 7.3378 37.1644 7.3137 37.1411 7.2905C37.1357 7.2843 37.1303 7.2796 37.1249 7.2749C33.2983 3.4011 27.9851 1 22.1103 1C19.2594 1 16.5411 1.5646 14.0602 2.5891C12.8201 3.101 11.6397 3.7276 10.5314 4.4551C4.7901 8.2289 1 14.7264 1 22.1096C1 29.4927 4.7901 35.9903 10.5314 39.7633C11.6358 40.4884 12.8123 41.1135 14.0478 41.6238C16.5318 42.6522 19.2548 43.2191 22.1103 43.2191C28.0161 43.2191 33.3557 40.7932 37.1861 36.8837L37.204 36.8659C37.2164 36.8534 37.2288 36.8403 37.2412 36.8279C37.2652 36.8038 37.2893 36.779 37.3125 36.7542C37.3218 36.7456 37.3304 36.7363 37.3389 36.7262C38.2618 35.7514 38.9389 34.5408 39.27 33.1936C39.4205 32.5864 39.4996 31.952 39.4996 31.299C39.4996 29.9309 39.1506 28.6443 38.5387 27.5221Z" fill="#6B5CE0"/>
<path d="M62.9741 12.6786C62.6443 12.2063 62.2202 11.7811 61.749 11.4033C61.2778 11.0254 60.8066 10.742 60.2883 10.5058C59.77 10.2696 59.2517 10.0807 58.6863 9.939C58.1209 9.7973 57.5554 9.75 56.99 9.75C56.3303 9.75 55.6235 9.8445 54.9168 10.0334C54.3042 10.2224 53.6917 10.4585 53.1262 10.7892C52.0425 11.4505 51.1001 12.3952 50.4875 13.4816C50.1577 14.0484 49.9221 14.6625 49.7336 15.2766C49.5452 15.9379 49.498 16.5992 49.498 17.2605C49.498 17.9217 49.5923 18.583 49.7808 19.2443C49.9692 19.8584 50.2048 20.4725 50.5818 21.0393C51.2415 22.1257 52.1838 23.0704 53.3147 23.7317C53.8801 24.0624 54.4927 24.3458 55.1052 24.4875C55.7178 24.6764 56.3774 24.7709 57.0371 24.7709H57.0842C57.5083 24.7709 57.9795 24.7237 58.4036 24.6292C58.8276 24.5347 59.2517 24.4402 59.6287 24.2985C60.0056 24.1568 60.3826 23.9679 60.7595 23.7317C61.0894 23.5428 61.4663 23.3066 61.749 23.0704C61.8904 22.9287 62.0317 22.787 62.1731 22.6453C62.3145 22.4563 62.3616 22.2674 62.4087 22.0312C62.4087 21.8895 62.3616 21.7951 62.3145 21.6533C62.2673 21.5589 62.2202 21.4644 62.1731 21.4172L61.9846 21.181C61.9375 21.1338 61.8904 21.0393 61.8433 20.9448C61.749 20.8031 61.6548 20.6614 61.5134 20.5197C61.4192 20.378 61.325 20.2835 61.1836 20.189C61.0422 20.0946 60.9009 20.0473 60.7595 20.0473H60.7124H60.6653C60.4768 20.0473 60.2883 20.0946 60.147 20.2363C60.0527 20.2835 59.9585 20.378 59.9114 20.4252C59.7229 20.5669 59.5344 20.7559 59.2988 20.8976C59.1104 21.0393 58.8748 21.181 58.6863 21.2755C58.4507 21.3699 58.2151 21.4644 57.9324 21.5116C57.6497 21.5589 57.3669 21.6061 57.0371 21.6061H56.99C56.5188 21.6061 56.0476 21.5116 55.6235 21.3227C55.1523 21.1338 54.7754 20.8976 54.3984 20.5669C54.0215 20.2363 53.6917 19.8584 53.4089 19.4333C53.2676 19.1971 53.1262 18.9609 53.032 18.7247H63.3982C64.0108 18.7247 64.4348 18.2996 64.4348 17.6856C64.4819 16.7409 64.3406 15.7489 64.105 14.8514C63.9165 14.0957 63.4924 13.3399 62.9741 12.6786ZM61.1365 15.6544H53.032C53.1733 15.3238 53.3147 15.0404 53.5503 14.7097C53.8801 14.2374 54.3042 13.8123 54.7754 13.4816C55.1052 13.2454 55.5293 13.1037 55.9063 13.0093C56.2832 12.9148 56.7073 12.8676 57.1314 12.8676C57.6497 12.8676 58.1209 12.962 58.592 13.1037C59.0632 13.2454 59.4873 13.4816 59.8643 13.8123C60.2412 14.0957 60.5711 14.4736 60.8066 14.8987C60.948 15.1349 61.0422 15.371 61.1365 15.6544Z" fill="#6B5CE0"/>
<path d="M76.8723 22.9758L71.4065 16.4573L76.2127 11.4504C76.354 11.2614 76.4483 10.978 76.4483 10.7891C76.4483 10.6474 76.4483 10.5529 76.4011 10.4584C76.354 10.364 76.2598 10.2695 76.1655 10.1278C75.9771 9.98613 75.7886 9.93893 75.6001 9.93893H74.0452C73.8096 9.93893 73.6211 9.98613 73.4326 10.0806C73.2913 10.175 73.197 10.2695 73.0557 10.364L68.5322 15.182V6.96303C68.5322 6.82133 68.5322 6.67963 68.438 6.53793C68.3909 6.39623 68.2966 6.25453 68.2024 6.20733C68.0139 6.01833 67.7783 5.92383 67.4956 5.92383H66.4119C66.2705 5.92383 66.1292 5.92383 65.9878 5.97113C65.8464 6.01833 65.7051 6.11283 65.6108 6.20733C65.4224 6.39623 65.3281 6.63243 65.3281 6.91583V23.401C65.3281 23.5427 65.3281 23.6844 65.3752 23.7788C65.4224 23.9205 65.5166 24.0623 65.6108 24.1567C65.7051 24.2512 65.8464 24.3457 65.9878 24.3929C66.082 24.4401 66.1763 24.4401 66.3176 24.4401C66.3647 24.4401 66.3647 24.4401 66.4119 24.4401H67.4014C68.0139 24.4401 68.438 24.015 68.438 23.401V19.4804L69.239 18.6774L73.5269 23.8733C73.6211 24.015 73.7153 24.204 73.9038 24.2984C74.0923 24.3929 74.2808 24.4874 74.4692 24.4874H76.2598C76.4483 24.4874 76.5896 24.4874 76.731 24.3929L76.7781 24.3457C76.8723 24.2984 77.155 24.1095 77.155 23.6844C77.155 23.5899 77.155 23.4954 77.1079 23.401C77.1079 23.2592 77.0137 23.1175 76.8723 22.9758Z" fill="#6B5CE0"/>
<path d="M89.9287 9.93737H88.8921C88.7507 9.93737 88.6094 9.93737 88.5151 9.98457C88.3738 10.0318 88.2324 10.1263 88.1382 10.2208C88.044 10.3152 87.9497 10.457 87.9026 10.5987C87.8555 10.7404 87.8555 10.8821 87.8555 10.9765V11.0238C87.4314 10.7404 87.0073 10.457 86.5361 10.268C85.6409 9.89007 84.6985 9.70117 83.7561 9.70117C83.709 9.70117 83.709 9.70117 83.6619 9.70117C83.0022 9.70117 82.3425 9.79567 81.6829 9.98457C81.0703 10.1735 80.4578 10.4097 79.8923 10.7404C79.3269 11.071 78.8086 11.4489 78.3845 11.9213C77.9133 12.3936 77.5364 12.866 77.2065 13.4328C76.8767 13.9996 76.594 14.6137 76.4526 15.2277C76.0757 16.5503 76.0757 17.9202 76.4526 19.1955C76.6411 19.8096 76.8767 20.4236 77.2065 20.9905C77.8662 22.0769 78.8086 23.0216 79.8923 23.6829C80.4578 24.0135 81.0703 24.2969 81.6829 24.4386C82.3425 24.6276 83.0022 24.7221 83.6619 24.7221C83.709 24.7221 83.709 24.7221 83.7561 24.7221C84.6985 24.7221 85.6409 24.5331 86.5361 24.1552C87.0073 23.9663 87.4314 23.6829 87.8555 23.3995V23.4939C87.8555 23.6356 87.8555 23.7773 87.9497 23.9191C87.9968 24.0608 88.0911 24.1552 88.1853 24.2497C88.2795 24.3442 88.4209 24.4386 88.5623 24.4859C88.7036 24.5331 88.845 24.5803 88.9392 24.5331H90.023C90.3057 24.5331 90.5413 24.4386 90.7297 24.2497C90.824 24.1552 90.9182 24.0135 90.9653 23.8718C91.0125 23.7301 91.0596 23.5884 91.0125 23.4939V10.9765C91.0125 10.5987 90.8711 10.3625 90.7297 10.2208C90.5884 10.0791 90.3528 9.93737 89.9287 9.93737ZM87.9026 17.1644C87.9026 17.7312 87.8084 18.298 87.5728 18.8649C87.3372 19.3845 87.0545 19.8568 86.6304 20.2819C86.2534 20.707 85.7822 21.0377 85.2639 21.2739C84.7456 21.51 84.1802 21.6518 83.6148 21.6518C83.0493 21.6518 82.4839 21.51 82.0127 21.2739C81.4944 21.0377 81.0703 20.707 80.6462 20.2819C80.2693 19.8568 79.9395 19.3845 79.751 18.8649C79.3269 17.7784 79.3269 16.5976 79.751 15.5111C79.9866 14.9916 80.2693 14.5192 80.6462 14.0941C81.0232 13.669 81.4944 13.3855 82.0127 13.1494C82.531 12.9132 83.0964 12.7715 83.6148 12.7715C84.1802 12.7715 84.7456 12.9132 85.2639 13.1494C85.7822 13.3855 86.2534 13.7162 86.6304 14.0941C87.0073 14.5192 87.3372 14.9916 87.5728 15.5111C87.8084 16.0307 87.9026 16.5976 87.9026 17.1644Z" fill="#6B5CE0"/>
<path d="M109.902 21.6067C109.855 21.5595 109.808 21.465 109.761 21.4178L109.29 20.8037C109.242 20.7092 109.148 20.6148 109.101 20.5203C109.007 20.3313 108.818 20.2369 108.583 20.1424C108.394 20.0952 108.206 20.0952 108.017 20.1424C107.876 20.1896 107.782 20.2369 107.64 20.3313L107.499 20.4731C107.311 20.6148 107.122 20.8037 106.886 20.9454C106.698 21.0871 106.462 21.2288 106.274 21.3233C106.038 21.4178 105.803 21.5122 105.52 21.5595C105.237 21.6067 104.955 21.6539 104.625 21.6539H104.578C104.059 21.6539 103.494 21.5122 103.023 21.3233C102.504 21.0871 102.033 20.7565 101.656 20.3786C101.232 19.9535 100.949 19.4811 100.714 18.9615C100.478 18.4419 100.384 17.8751 100.384 17.261C100.384 16.6942 100.525 16.0802 100.761 15.5606C100.997 15.041 101.326 14.5214 101.703 14.1435C102.08 13.7184 102.552 13.3877 103.07 13.1516C103.541 12.9154 104.106 12.7737 104.625 12.7737C104.907 12.7737 105.143 12.8209 105.426 12.8681C105.944 12.9626 106.462 13.1988 106.886 13.4822C107.075 13.6239 107.263 13.7656 107.452 13.9546C107.688 14.1907 107.97 14.3324 108.253 14.3324C108.441 14.3324 108.724 14.238 108.96 13.9073L109.761 12.8681C109.902 12.6792 109.902 12.443 109.902 12.2541C109.902 12.1124 109.808 11.9234 109.714 11.7817C109.619 11.6873 109.525 11.5928 109.431 11.4983L109.242 11.3566C108.96 11.1204 108.63 10.9315 108.3 10.7426C107.923 10.5536 107.593 10.3647 107.216 10.223C106.839 10.0813 106.415 9.98681 105.991 9.89231C105.567 9.79781 105.143 9.75061 104.719 9.79781C104.059 9.79781 103.4 9.89231 102.74 10.0813C102.127 10.2702 101.515 10.5064 100.949 10.837C99.819 11.4983 98.9231 12.443 98.2171 13.5294C97.8871 14.0963 97.6041 14.7103 97.4161 15.3244C97.0391 16.647 97.0391 18.0168 97.4161 19.2922C97.6041 19.9062 97.8401 20.5203 98.2171 21.0871C98.8761 22.1735 99.819 23.1182 100.949 23.7795C101.515 24.1102 102.127 24.3936 102.74 24.5353C103.4 24.7242 104.012 24.8187 104.672 24.8187H104.719C105.143 24.8187 105.614 24.7715 106.038 24.677C106.462 24.5825 106.886 24.4881 107.263 24.3464C107.64 24.2047 108.017 24.0157 108.394 23.7795C108.724 23.5906 109.054 23.3544 109.384 23.1182C109.525 23.0238 109.667 22.8821 109.761 22.7404C109.855 22.5986 109.949 22.4569 109.996 22.3152C110.043 22.1263 110.043 21.9373 109.996 21.7956L109.902 21.6067Z" fill="#6B5CE0"/>
<path d="M124.04 9.93737H123.003C122.862 9.93737 122.72 9.93737 122.626 9.98457C122.485 10.0318 122.344 10.1263 122.249 10.2208C122.155 10.3152 122.061 10.457 122.014 10.5987C121.967 10.7404 121.967 10.8821 121.967 10.9765V11.0238C121.542 10.7404 121.118 10.457 120.647 10.268C119.752 9.89007 118.81 9.70117 117.82 9.70117C117.16 9.70117 116.501 9.79567 115.841 9.98457C115.229 10.1735 114.616 10.4097 114.051 10.7404C113.485 11.071 112.967 11.4489 112.543 11.9213C112.072 12.3936 111.695 12.866 111.365 13.4328C111.035 13.9996 110.799 14.6137 110.611 15.2277C110.234 16.5503 110.234 17.9202 110.611 19.1955C111.129 21.0849 112.401 22.6909 114.051 23.6829C114.616 24.0135 115.229 24.2969 115.841 24.4386C116.501 24.6276 117.16 24.7221 117.82 24.7221C117.867 24.7221 117.867 24.7221 117.914 24.7221C118.857 24.7221 119.799 24.5331 120.694 24.1552C121.166 23.9663 121.59 23.6829 122.014 23.3995V23.4939C122.014 23.6356 122.014 23.7773 122.108 23.9191C122.155 24.0608 122.249 24.1552 122.344 24.2497C122.438 24.3442 122.579 24.4386 122.72 24.4859C122.862 24.5331 123.003 24.5803 123.097 24.5331H124.181C124.464 24.5331 124.699 24.4386 124.888 24.2497C124.982 24.1552 125.076 24.0135 125.124 23.8718C125.171 23.7301 125.218 23.5884 125.218 23.4939V10.9765C125.218 10.5987 125.076 10.3625 124.935 10.2208C124.699 10.0791 124.464 9.93737 124.04 9.93737ZM122.061 17.1644C122.061 17.7312 121.967 18.298 121.731 18.8649C121.495 19.3845 121.213 19.904 120.789 20.2819C120.412 20.707 119.94 21.0377 119.422 21.2739C118.904 21.51 118.338 21.6518 117.773 21.6518C117.208 21.6518 116.642 21.51 116.171 21.2739C115.653 21.0377 115.229 20.707 114.804 20.2819C114.427 19.8568 114.098 19.3845 113.909 18.8649C113.485 17.7784 113.485 16.5976 113.909 15.5111C114.145 14.9916 114.427 14.5192 114.804 14.0941C115.181 13.669 115.653 13.3855 116.171 13.1494C116.689 12.9132 117.255 12.7715 117.773 12.7715C118.338 12.7715 118.904 12.9132 119.422 13.1494C119.94 13.3855 120.412 13.7162 120.789 14.0941C121.166 14.5192 121.495 14.9916 121.731 15.5111C121.919 16.0307 122.061 16.5976 122.061 17.1644Z" fill="#6B5CE0"/>
<path d="M136.336 11.9228C136.336 11.7811 136.289 11.6394 136.242 11.4977C136.195 11.356 136.1 11.2615 136.006 11.1671C135.912 11.0726 135.818 10.9781 135.676 10.9309C135.394 10.742 135.111 10.553 134.781 10.3641C134.498 10.2224 134.216 10.0807 133.886 9.9862C133.556 9.8917 133.226 9.8445 132.896 9.7973C132.519 9.75 132.142 9.75 131.813 9.75C131.388 9.75 131.011 9.7973 130.635 9.939C130.305 10.0807 130.022 10.2224 129.739 10.4113C129.692 10.4585 129.645 10.5058 129.598 10.5058C129.551 10.4113 129.504 10.3168 129.409 10.2224C129.315 10.1279 129.174 10.0334 129.032 9.9862C128.891 9.939 128.75 9.8917 128.656 9.939H127.572C127.43 9.939 127.289 9.939 127.195 10.0334C127.053 10.0807 126.959 10.1751 126.865 10.2224C126.771 10.3168 126.677 10.4585 126.629 10.6003C126.582 10.742 126.535 10.8837 126.535 10.9781V23.4955C126.535 24.1096 126.959 24.5347 127.572 24.5347H128.656C128.703 24.5347 128.703 24.5347 128.75 24.5347C128.844 24.5347 128.985 24.5347 129.08 24.4875C129.221 24.4402 129.362 24.3458 129.457 24.2513C129.551 24.1568 129.645 24.0151 129.692 23.8734C129.739 23.7317 129.739 23.59 129.739 23.4955V15.2293C129.739 14.8514 129.786 14.5208 129.928 14.1901C130.022 13.9067 130.21 13.6706 130.399 13.4344C130.587 13.2454 130.823 13.1037 131.059 12.962C131.294 12.8676 131.577 12.8203 131.86 12.8203C132.237 12.8203 132.614 12.8676 132.99 13.0093C133.415 13.151 133.792 13.3399 134.121 13.5761L134.263 13.6706C134.404 13.8123 134.593 13.8595 134.828 13.8595C134.969 13.8595 135.111 13.8123 135.205 13.7178C135.346 13.6233 135.441 13.5288 135.535 13.4344L136.195 12.3952C136.289 12.2535 136.336 12.1118 136.336 11.9228Z" fill="#6B5CE0"/>
<path d="M150.661 14.8971C150.426 14.0941 150.096 13.2911 149.578 12.6298C149.201 12.1574 148.824 11.7323 148.353 11.3544C147.881 10.9765 147.41 10.6931 146.892 10.457C146.374 10.2208 145.855 10.0318 145.29 9.89007C144.724 9.74837 144.159 9.70117 143.594 9.70117H143.546C142.887 9.70117 142.18 9.79567 141.52 9.98457C140.908 10.1735 140.295 10.4097 139.73 10.7404C139.164 11.071 138.646 11.4489 138.222 11.9213C137.327 12.866 136.667 13.9996 136.337 15.2277C136.149 15.889 136.102 16.5503 136.102 17.2116C136.102 17.8729 136.196 18.5814 136.384 19.1955C136.573 19.8096 136.808 20.4236 137.138 20.9905C137.468 21.5573 137.892 22.0769 138.316 22.502C138.787 22.9743 139.306 23.3522 139.824 23.6829C140.389 24.0135 141.002 24.2969 141.615 24.4386C142.274 24.6276 142.887 24.7221 143.546 24.7221C143.546 24.7221 143.546 24.7221 143.594 24.7221C144.065 24.7221 144.489 24.6748 144.913 24.5804C145.337 24.4859 145.761 24.3914 146.138 24.2497C146.515 24.108 146.892 23.9191 147.269 23.6829C147.599 23.4939 147.928 23.2578 148.258 23.0216C148.4 22.8799 148.588 22.7382 148.682 22.5965C148.824 22.4548 148.871 22.2658 148.871 21.9824C148.871 21.8407 148.824 21.7462 148.777 21.6045C148.73 21.51 148.682 21.4156 148.635 21.3683L148.494 21.1794C148.447 21.1322 148.4 21.0377 148.305 20.9432L147.976 20.5181C147.928 20.4236 147.834 20.3292 147.74 20.2819C147.646 20.1875 147.504 20.1402 147.363 20.093C147.222 20.0457 147.08 20.0457 146.986 20.093C146.845 20.1402 146.75 20.1875 146.656 20.2347C146.562 20.2819 146.468 20.3764 146.421 20.4236C146.232 20.5653 146.044 20.7543 145.808 20.896C145.62 21.0377 145.384 21.1794 145.196 21.2739C144.96 21.3683 144.724 21.4628 144.442 21.51C144.159 21.5573 143.829 21.6045 143.546 21.6045H143.499C143.028 21.6045 142.557 21.51 142.133 21.3211C141.662 21.1322 141.285 20.896 140.908 20.5653C140.531 20.2347 140.201 19.8568 139.965 19.4317C139.824 19.1955 139.683 18.9593 139.588 18.7232H149.955C150.567 18.7232 150.991 18.298 150.991 17.684C151.038 16.7865 150.897 15.8418 150.661 14.8971ZM147.693 15.6529H139.588C139.73 15.3222 139.871 15.0388 140.107 14.7081C140.437 14.2358 140.861 13.8107 141.332 13.48C141.662 13.2438 142.039 13.1021 142.463 13.0077C142.84 12.9132 143.264 12.866 143.688 12.866C144.206 12.866 144.677 12.9604 145.148 13.1021C145.62 13.2438 146.044 13.48 146.421 13.8107C146.798 14.0941 147.127 14.472 147.363 14.8971C147.457 15.1333 147.599 15.3694 147.693 15.6529Z" fill="#6B5CE0"/>
<path d="M95.203 20.9932C94.873 20.8515 94.496 20.8043 94.119 20.8988C93.7424 20.9932 93.4125 21.135 93.1298 21.4184C92.8471 21.7018 92.6586 22.0324 92.6115 22.4103C92.5173 22.9299 92.6115 23.4023 92.8942 23.8274C93.1769 24.2525 93.601 24.5359 94.072 24.6304C94.214 24.6776 94.308 24.6776 94.449 24.6776C94.685 24.6776 94.92 24.6304 95.156 24.5359C95.486 24.3942 95.816 24.158 96.004 23.8274C96.193 23.4967 96.334 23.1661 96.334 22.7882C96.334 22.4103 96.24 22.0324 96.004 21.749C95.863 21.3711 95.58 21.135 95.203 20.9932Z" fill="#6B5CE0"/>
<path d="M50.979 37.5827H52.0808V34.5268H53.2449C54.8249 34.5268 55.6876 33.7784 55.6876 32.4064C55.6876 31.0551 54.8353 30.3379 53.2449 30.3379H50.979V37.5827ZM52.0808 33.4978V31.3669H53.1306C54.1284 31.3669 54.565 31.6891 54.565 32.4271C54.565 33.1547 54.1181 33.4978 53.1306 33.4978H52.0808ZM60.8366 32.3648C60.2753 32.3648 59.6828 32.6558 59.4229 33.3003V32.4583H58.3419V37.5827H59.4125V34.9114C59.4125 33.8927 59.8595 33.3834 60.6287 33.3834C60.8677 33.3834 61.0652 33.4458 61.2627 33.5601L61.7824 32.6246C61.4706 32.4375 61.1692 32.3648 60.8366 32.3648ZM64.1861 31.4605H65.3295V30.3379H64.1861V31.4605ZM64.2277 37.5827H65.2983V32.4583H64.2277V37.5827ZM70.6393 37.6763C72.1777 37.6763 73.1652 36.4809 73.1652 35.0153C73.1652 33.5393 72.1777 32.3648 70.6393 32.3648C69.0906 32.3648 68.1031 33.5393 68.1031 35.0153C68.1031 36.4809 69.0906 37.6763 70.6393 37.6763ZM70.6393 36.7408C69.6415 36.7408 69.1737 35.9612 69.1737 35.0153C69.1737 34.0695 69.6415 33.3003 70.6393 33.3003C71.6268 33.3003 72.0945 34.0695 72.0945 35.0153C72.0945 35.9508 71.6372 36.7408 70.6393 36.7408ZM78.4737 32.3648C77.9124 32.3648 77.3199 32.6558 77.06 33.3003V32.4583H75.979V37.5827H77.0496V34.9114C77.0496 33.8927 77.4966 33.3834 78.2658 33.3834C78.5049 33.3834 78.7024 33.4458 78.8998 33.5601L79.4196 32.6246C79.1077 32.4375 78.8063 32.3648 78.4737 32.3648ZM81.8233 31.4605H82.9666V30.3379H81.8233V31.4605ZM81.8648 37.5827H82.9355V32.4583H81.8648V37.5827ZM88.7234 36.6576C88.4947 36.7304 88.2869 36.772 88.1101 36.772C87.7048 36.772 87.4657 36.5641 87.4657 36.1275V33.3211H88.7234V32.4583H87.4657V30.5562L86.3951 31.3565V32.4583H85.5531V33.3211H86.3951V36.2211C86.3951 37.2501 87.0395 37.6763 87.8503 37.6763C88.1309 37.6763 88.4324 37.6243 88.7338 37.5308L88.7234 36.6576ZM91.5343 31.4605H92.6777V30.3379H91.5343V31.4605ZM91.5759 37.5827H92.6465V32.4583H91.5759V37.5827ZM99.588 32.4583H95.555V33.3626H98.279L95.42 36.8551V37.5827H99.588V36.6784H96.834L99.588 33.2483V32.4583ZM106.676 34.8906C106.676 33.5497 105.948 32.3648 104.358 32.3648C102.726 32.3648 101.977 33.6745 101.977 35.0465C101.977 36.4498 102.746 37.6763 104.441 37.6763C105.283 37.6763 105.927 37.406 106.509 36.772L105.761 36.1275C105.376 36.5641 104.95 36.7096 104.451 36.7096C103.578 36.7096 103.089 36.1795 103.048 35.3584H106.644C106.665 35.2024 106.676 35.0465 106.676 34.8906ZM103.048 34.4956C103.121 33.8616 103.536 33.2587 104.358 33.2587C105.116 33.2587 105.626 33.7472 105.646 34.4748V34.4956H103.048ZM114.007 37.5827H115.12V34.3813H118.487V37.5827H119.6V30.3379H118.487V33.3522H115.12V30.3379H114.007V37.5827ZM127.327 34.8906C127.327 33.5497 126.6 32.3648 125.009 32.3648C123.378 32.3648 122.629 33.6745 122.629 35.0465C122.629 36.4498 123.398 37.6763 125.093 37.6763C125.935 37.6763 126.579 37.406 127.161 36.772L126.413 36.1275C126.028 36.5641 125.602 36.7096 125.103 36.7096C124.23 36.7096 123.741 36.1795 123.7 35.3584H127.296C127.317 35.2024 127.327 35.0465 127.327 34.8906ZM123.7 34.4956C123.773 33.8616 124.188 33.2587 125.009 33.2587C125.768 33.2587 126.278 33.7472 126.298 34.4748V34.4956H123.7ZM132.072 32.3648C131.157 32.3648 130.43 32.7182 129.837 33.4458L130.617 34.1006C131.001 33.5705 131.5 33.3003 132.061 33.3003C132.737 33.3003 133.142 33.6953 133.142 34.3605V34.5372H131.947C131.219 34.5372 130.741 34.6204 130.388 34.7971C129.931 35.0257 129.681 35.4623 129.681 36.0444C129.681 37.0215 130.409 37.6763 131.5 37.6763C132.228 37.6763 132.82 37.3749 133.153 36.8551L133.236 37.5827H134.213V34.3605C134.213 33.1132 133.402 32.3648 132.072 32.3648ZM131.698 36.772C131.116 36.772 130.752 36.5017 130.752 36.0652C130.752 35.8469 130.824 35.6702 130.98 35.5662C131.178 35.4103 131.479 35.3584 132.072 35.3584H133.142V35.3791C133.142 36.1899 132.529 36.772 131.698 36.772ZM138.415 37.6763C138.654 37.6763 138.925 37.6243 139.184 37.5308V36.6576C139.028 36.7096 138.883 36.7304 138.758 36.7304C138.488 36.7304 138.353 36.5953 138.353 36.325V30.3379H137.282V36.3978C137.282 37.2709 137.75 37.6763 138.415 37.6763ZM144.386 36.6576C144.157 36.7304 143.949 36.772 143.772 36.772C143.367 36.772 143.128 36.5641 143.128 36.1275V33.3211H144.386V32.4583H143.128V30.5562L142.057 31.3565V32.4583H141.215V33.3211H142.057V36.2211C142.057 37.2501 142.702 37.6763 143.513 37.6763C143.793 37.6763 144.095 37.6243 144.396 37.5308L144.386 36.6576ZM149.747 32.3648C149.051 32.3648 148.489 32.6246 148.157 33.0924V30.3379H147.086V37.5827H148.157V35.4311C148.157 33.9759 148.562 33.3003 149.435 33.3003C150.121 33.3003 150.443 33.7056 150.443 34.5996V37.5827H151.514V34.3293C151.514 33.0612 150.89 32.3648 149.747 32.3648Z" fill="#6B5CE0"/>
</svg>
