<svg width="32" height="32" viewBox="0 0 32 32" fill="none" xmlns="http://www.w3.org/2000/svg">
<rect width="32" height="32" rx="4" fill="#F4F1EA"/>
<path d="M26.6709 10.3359V10.6399C26.3296 10.7146 25.9616 10.8639 25.5669 11.0879C25.1829 11.3119 24.7776 11.6746 24.3509 12.1759L21.3429 15.7599L22.2709 14.4319L26.0789 20.3679C26.2283 20.6133 26.3883 20.8106 26.5589 20.9599C26.7296 21.1093 26.9536 21.2373 27.2309 21.3439V21.6639C26.8576 21.6426 26.4416 21.6319 25.9829 21.6319C25.5243 21.6213 25.1083 21.6159 24.7349 21.6159C24.5109 21.6159 24.2389 21.6213 23.9189 21.6319C23.5989 21.6319 23.1936 21.6426 22.7029 21.6639V21.3439C23.1403 21.3226 23.4016 21.2639 23.4869 21.1679C23.5829 21.0613 23.5456 20.8799 23.3749 20.6239L21.0549 16.8639C20.9056 16.6186 20.7723 16.4373 20.6549 16.3199C20.5376 16.1919 20.4203 16.1066 20.3029 16.0639C20.1856 16.0106 20.0309 15.9786 19.8389 15.9679V15.6319C20.3083 15.6213 20.7243 15.4933 21.0869 15.2479C21.4603 15.0026 21.8656 14.6293 22.3029 14.1279L23.2469 12.9919C23.6523 12.5119 23.8869 12.1013 23.9509 11.7599C24.0256 11.4079 23.9563 11.1359 23.7429 10.9439C23.5403 10.7519 23.2256 10.6506 22.7989 10.6399V10.3359C23.0656 10.3466 23.3163 10.3573 23.5509 10.3679C23.7963 10.3679 24.0469 10.3733 24.3029 10.3839C24.5696 10.3839 24.8576 10.3839 25.1669 10.3839C25.4763 10.3839 25.7536 10.3786 25.9989 10.3679C26.2549 10.3573 26.4789 10.3466 26.6709 10.3359ZM21.1349 10.3359V10.6559C20.7936 10.6666 20.5323 10.7093 20.3509 10.7839C20.1803 10.8479 20.0683 10.9759 20.0149 11.1679C19.9616 11.3493 19.9349 11.6373 19.9349 12.0319V19.9679C19.9349 20.3519 19.9616 20.6399 20.0149 20.8319C20.0789 21.0239 20.1963 21.1519 20.3669 21.2159C20.5376 21.2799 20.7936 21.3226 21.1349 21.3439V21.6639C20.8469 21.6426 20.4843 21.6319 20.0469 21.6319C19.6096 21.6213 19.1669 21.6159 18.7189 21.6159C18.2069 21.6159 17.7216 21.6213 17.2629 21.6319C16.8149 21.6319 16.4576 21.6426 16.1909 21.6639V21.3439C16.5323 21.3226 16.7883 21.2799 16.9589 21.2159C17.1296 21.1519 17.2416 21.0239 17.2949 20.8319C17.3589 20.6399 17.3909 20.3519 17.3909 19.9679V12.0319C17.3909 11.6373 17.3589 11.3493 17.2949 11.1679C17.2416 10.9759 17.1243 10.8479 16.9429 10.7839C16.7723 10.7093 16.5216 10.6666 16.1909 10.6559V10.3359C16.4576 10.3466 16.8149 10.3573 17.2629 10.3679C17.7216 10.3786 18.2069 10.3839 18.7189 10.3839C19.1669 10.3839 19.6096 10.3786 20.0469 10.3679C20.4843 10.3573 20.8469 10.3466 21.1349 10.3359Z" fill="#3D5A80"/>
<path d="M15.249 10.3359V10.6399C14.9077 10.7146 14.5397 10.8639 14.145 11.0879C13.761 11.3119 13.3557 11.6746 12.929 12.1759L9.92104 15.7599L10.849 14.4319L14.657 20.3679C14.8064 20.6133 14.9664 20.8106 15.137 20.9599C15.3077 21.1093 15.5317 21.2373 15.809 21.3439V21.6639C15.4357 21.6426 15.0197 21.6319 14.561 21.6319C14.1024 21.6213 13.6864 21.6159 13.313 21.6159C13.089 21.6159 12.817 21.6213 12.497 21.6319C12.177 21.6319 11.7717 21.6426 11.281 21.6639V21.3439C11.7184 21.3226 11.9797 21.2639 12.065 21.1679C12.161 21.0613 12.1237 20.8799 11.953 20.6239L9.63304 16.8639C9.48371 16.6186 9.35038 16.4373 9.23304 16.3199C9.11571 16.1919 8.99838 16.1066 8.88104 16.0639C8.76371 16.0106 8.60904 15.9786 8.41704 15.9679V15.6319C8.88638 15.6213 9.30238 15.4933 9.66504 15.2479C10.0384 15.0026 10.4437 14.6293 10.881 14.1279L11.825 12.9919C12.2304 12.5119 12.465 12.1013 12.529 11.7599C12.6037 11.4079 12.5344 11.1359 12.321 10.9439C12.1184 10.7519 11.8037 10.6506 11.377 10.6399V10.3359C11.6437 10.3466 11.8944 10.3573 12.129 10.3679C12.3744 10.3679 12.625 10.3733 12.881 10.3839C13.1477 10.3839 13.4357 10.3839 13.745 10.3839C14.0544 10.3839 14.3317 10.3786 14.577 10.3679C14.833 10.3573 15.057 10.3466 15.249 10.3359ZM9.71304 10.3359V10.6559C9.37171 10.6666 9.11038 10.7093 8.92904 10.7839C8.75838 10.8479 8.64638 10.9759 8.59304 11.1679C8.53971 11.3493 8.51304 11.6373 8.51304 12.0319V19.9679C8.51304 20.3519 8.53971 20.6399 8.59304 20.8319C8.65704 21.0239 8.77438 21.1519 8.94504 21.2159C9.11571 21.2799 9.37171 21.3226 9.71304 21.3439V21.6639C9.42504 21.6426 9.06238 21.6319 8.62504 21.6319C8.18771 21.6213 7.74504 21.6159 7.29704 21.6159C6.78504 21.6159 6.29971 21.6213 5.84104 21.6319C5.39304 21.6319 5.03571 21.6426 4.76904 21.6639V21.3439C5.11038 21.3226 5.36638 21.2799 5.53704 21.2159C5.70771 21.1519 5.81971 21.0239 5.87304 20.8319C5.93704 20.6399 5.96904 20.3519 5.96904 19.9679V12.0319C5.96904 11.6373 5.93704 11.3493 5.87304 11.1679C5.81971 10.9759 5.70238 10.8479 5.52104 10.7839C5.35038 10.7093 5.09971 10.6666 4.76904 10.6559V10.3359C5.03571 10.3466 5.39304 10.3573 5.84104 10.3679C6.29971 10.3786 6.78504 10.3839 7.29704 10.3839C7.74504 10.3839 8.18771 10.3786 8.62504 10.3679C9.06238 10.3573 9.42504 10.3466 9.71304 10.3359Z" fill="#3D5A80"/>
</svg>
